<mxfile host="app.diagrams.net" modified="2024-08-08T17:30:38.343Z" agent="Mozilla/5.0 (X11; Linux x86_64; rv:129.0) Gecko/20100101 Firefox/129.0" etag="Pr_yhhb51ZeVCW3qab1a" version="24.4.13" type="device">
  <diagram name="Page-1" id="Hr3zOnQGrsAM1bCTbWln">
    <mxGraphModel dx="1430" dy="763" grid="1" gridSize="10" guides="1" tooltips="1" connect="1" arrows="1" fold="1" page="1" pageScale="1" pageWidth="1169" pageHeight="827" math="0" shadow="0">
      <root>
        <mxCell id="0" />
        <mxCell id="1" parent="0" />
        <mxCell id="5Yn4hEuZ40efcwBonSfj-1" value="Declare Types (incl. kind)" style="rounded=0;whiteSpace=wrap;html=1;" vertex="1" parent="1">
          <mxGeometry x="40" y="30" width="120" height="60" as="geometry" />
        </mxCell>
        <mxCell id="5Yn4hEuZ40efcwBonSfj-13" style="edgeStyle=orthogonalEdgeStyle;rounded=0;orthogonalLoop=1;jettySize=auto;html=1;exitX=0.5;exitY=0;exitDx=0;exitDy=0;entryX=0.5;entryY=1;entryDx=0;entryDy=0;curved=1;" edge="1" parent="1" source="5Yn4hEuZ40efcwBonSfj-2" target="5Yn4hEuZ40efcwBonSfj-1">
          <mxGeometry relative="1" as="geometry" />
        </mxCell>
        <mxCell id="5Yn4hEuZ40efcwBonSfj-26" style="edgeStyle=orthogonalEdgeStyle;rounded=0;orthogonalLoop=1;jettySize=auto;html=1;exitX=0.5;exitY=0;exitDx=0;exitDy=0;entryX=0.5;entryY=1;entryDx=0;entryDy=0;curved=1;" edge="1" parent="1" source="5Yn4hEuZ40efcwBonSfj-2" target="5Yn4hEuZ40efcwBonSfj-5">
          <mxGeometry relative="1" as="geometry" />
        </mxCell>
        <mxCell id="5Yn4hEuZ40efcwBonSfj-2" value="&lt;div&gt;Define Types&lt;/div&gt;" style="rounded=0;whiteSpace=wrap;html=1;" vertex="1" parent="1">
          <mxGeometry x="280" y="190" width="120" height="60" as="geometry" />
        </mxCell>
        <mxCell id="5Yn4hEuZ40efcwBonSfj-22" style="edgeStyle=orthogonalEdgeStyle;rounded=0;orthogonalLoop=1;jettySize=auto;html=1;exitX=0;exitY=0.5;exitDx=0;exitDy=0;entryX=1;entryY=0.5;entryDx=0;entryDy=0;curved=1;" edge="1" parent="1" source="5Yn4hEuZ40efcwBonSfj-3" target="5Yn4hEuZ40efcwBonSfj-5">
          <mxGeometry relative="1" as="geometry" />
        </mxCell>
        <mxCell id="5Yn4hEuZ40efcwBonSfj-3" value="&lt;div&gt;Declare Global Variables&lt;/div&gt;" style="rounded=0;whiteSpace=wrap;html=1;" vertex="1" parent="1">
          <mxGeometry x="520" y="30" width="120" height="60" as="geometry" />
        </mxCell>
        <mxCell id="5Yn4hEuZ40efcwBonSfj-15" style="edgeStyle=orthogonalEdgeStyle;rounded=0;orthogonalLoop=1;jettySize=auto;html=1;exitX=0;exitY=0.5;exitDx=0;exitDy=0;entryX=1;entryY=0.5;entryDx=0;entryDy=0;" edge="1" parent="1" source="5Yn4hEuZ40efcwBonSfj-5" target="5Yn4hEuZ40efcwBonSfj-1">
          <mxGeometry relative="1" as="geometry" />
        </mxCell>
        <mxCell id="5Yn4hEuZ40efcwBonSfj-5" value="&lt;div&gt;Resolve Types&lt;/div&gt;" style="rounded=0;whiteSpace=wrap;html=1;" vertex="1" parent="1">
          <mxGeometry x="280" y="30" width="120" height="60" as="geometry" />
        </mxCell>
        <mxCell id="5Yn4hEuZ40efcwBonSfj-17" style="edgeStyle=orthogonalEdgeStyle;rounded=0;orthogonalLoop=1;jettySize=auto;html=1;exitX=0.5;exitY=0;exitDx=0;exitDy=0;entryX=0.5;entryY=1;entryDx=0;entryDy=0;curved=1;" edge="1" parent="1" source="5Yn4hEuZ40efcwBonSfj-6" target="5Yn4hEuZ40efcwBonSfj-3">
          <mxGeometry relative="1" as="geometry" />
        </mxCell>
        <mxCell id="5Yn4hEuZ40efcwBonSfj-36" style="edgeStyle=orthogonalEdgeStyle;rounded=0;orthogonalLoop=1;jettySize=auto;html=1;exitX=0;exitY=0.5;exitDx=0;exitDy=0;entryX=0.5;entryY=1;entryDx=0;entryDy=0;curved=1;" edge="1" parent="1" source="5Yn4hEuZ40efcwBonSfj-8" target="5Yn4hEuZ40efcwBonSfj-2">
          <mxGeometry relative="1" as="geometry" />
        </mxCell>
        <mxCell id="5Yn4hEuZ40efcwBonSfj-6" value="Resolve Variables (in functions)" style="rounded=0;whiteSpace=wrap;html=1;" vertex="1" parent="1">
          <mxGeometry x="760" y="190" width="120" height="60" as="geometry" />
        </mxCell>
        <mxCell id="5Yn4hEuZ40efcwBonSfj-38" style="edgeStyle=orthogonalEdgeStyle;rounded=0;orthogonalLoop=1;jettySize=auto;html=1;exitX=0.5;exitY=0;exitDx=0;exitDy=0;entryX=0.5;entryY=1;entryDx=0;entryDy=0;curved=1;" edge="1" parent="1" source="5Yn4hEuZ40efcwBonSfj-7" target="5Yn4hEuZ40efcwBonSfj-5">
          <mxGeometry relative="1" as="geometry" />
        </mxCell>
        <mxCell id="5Yn4hEuZ40efcwBonSfj-40" style="edgeStyle=orthogonalEdgeStyle;rounded=0;orthogonalLoop=1;jettySize=auto;html=1;exitX=0.5;exitY=0;exitDx=0;exitDy=0;entryX=0.5;entryY=1;entryDx=0;entryDy=0;curved=1;" edge="1" parent="1" source="5Yn4hEuZ40efcwBonSfj-7" target="5Yn4hEuZ40efcwBonSfj-3">
          <mxGeometry relative="1" as="geometry" />
        </mxCell>
        <mxCell id="5Yn4hEuZ40efcwBonSfj-7" value="Typecheck Globals (excl. function return values)" style="rounded=0;whiteSpace=wrap;html=1;" vertex="1" parent="1">
          <mxGeometry x="520" y="190" width="120" height="60" as="geometry" />
        </mxCell>
        <mxCell id="5Yn4hEuZ40efcwBonSfj-24" style="edgeStyle=orthogonalEdgeStyle;rounded=0;orthogonalLoop=1;jettySize=auto;html=1;exitX=0.5;exitY=0;exitDx=0;exitDy=0;entryX=0.5;entryY=1;entryDx=0;entryDy=0;curved=1;" edge="1" parent="1" source="5Yn4hEuZ40efcwBonSfj-8" target="5Yn4hEuZ40efcwBonSfj-6">
          <mxGeometry relative="1" as="geometry" />
        </mxCell>
        <mxCell id="5Yn4hEuZ40efcwBonSfj-39" style="edgeStyle=orthogonalEdgeStyle;rounded=0;orthogonalLoop=1;jettySize=auto;html=1;exitX=0.5;exitY=0;exitDx=0;exitDy=0;entryX=0.5;entryY=1;entryDx=0;entryDy=0;curved=1;" edge="1" parent="1" source="5Yn4hEuZ40efcwBonSfj-8" target="5Yn4hEuZ40efcwBonSfj-7">
          <mxGeometry relative="1" as="geometry" />
        </mxCell>
        <mxCell id="5Yn4hEuZ40efcwBonSfj-8" value="Typecheck Functions" style="rounded=0;whiteSpace=wrap;html=1;" vertex="1" parent="1">
          <mxGeometry x="760" y="350" width="120" height="60" as="geometry" />
        </mxCell>
        <mxCell id="5Yn4hEuZ40efcwBonSfj-25" style="edgeStyle=orthogonalEdgeStyle;rounded=0;orthogonalLoop=1;jettySize=auto;html=1;exitX=0;exitY=0.5;exitDx=0;exitDy=0;entryX=1;entryY=0.5;entryDx=0;entryDy=0;" edge="1" parent="1" source="5Yn4hEuZ40efcwBonSfj-9" target="5Yn4hEuZ40efcwBonSfj-8">
          <mxGeometry relative="1" as="geometry" />
        </mxCell>
        <mxCell id="5Yn4hEuZ40efcwBonSfj-9" value="Check Function Return Values" style="rounded=0;whiteSpace=wrap;html=1;" vertex="1" parent="1">
          <mxGeometry x="1000" y="350" width="120" height="60" as="geometry" />
        </mxCell>
        <mxCell id="5Yn4hEuZ40efcwBonSfj-10" value="Check References" style="rounded=0;whiteSpace=wrap;html=1;" vertex="1" parent="1">
          <mxGeometry x="760" y="470" width="120" height="60" as="geometry" />
        </mxCell>
        <mxCell id="5Yn4hEuZ40efcwBonSfj-23" value="" style="endArrow=classic;html=1;rounded=0;exitX=0.5;exitY=0;exitDx=0;exitDy=0;entryX=0.5;entryY=1;entryDx=0;entryDy=0;" edge="1" parent="1" source="5Yn4hEuZ40efcwBonSfj-10" target="5Yn4hEuZ40efcwBonSfj-8">
          <mxGeometry width="50" height="50" relative="1" as="geometry">
            <mxPoint x="1030" y="380" as="sourcePoint" />
            <mxPoint x="1080" y="330" as="targetPoint" />
          </mxGeometry>
        </mxCell>
      </root>
    </mxGraphModel>
  </diagram>
</mxfile>
